<svg width="120" height="44" viewBox="0 0 120 44" fill="none" xmlns="http://www.w3.org/2000/svg">
<g clip-path="url(#clip0_2885_24471)">
<path d="M21.7406 42.6819C33.7455 42.6819 43.4774 33.3231 43.4774 21.7784C43.4774 10.2338 33.7455 0.875 21.7406 0.875C9.73577 0.875 0.00390625 10.2338 0.00390625 21.7784C0.00390625 33.3231 9.73577 42.6819 21.7406 42.6819Z" fill="#59A52C"/>
<path d="M32.6974 22.1819C32.9567 24.0884 32.3637 26.4048 30.7708 29.0062C26.7319 35.7411 16.5421 36.4712 9.74219 32.9792L11.3538 26.2084H13.9292C18.0239 30.9121 22.7668 27.6674 23.3413 25.6202C23.7488 24.1613 22.8227 22.7515 21.2291 22.1819H19.5051C18.4898 21.8508 17.3892 21.8508 16.3738 22.1819H18.0784C17.0563 22.5328 16.1182 23.0781 15.3201 23.7854H12.9845L13.3549 22.1819H11.6309L14.9285 8.23145H34.0869L32.5492 14.8065H22.1924L21.729 16.7488C27.287 16.7488 30.548 18.7979 30.9921 22.1832H32.6967L32.6974 22.1819Z" fill="white"/>
<path d="M55.2284 14.7028C54.3972 14.6966 53.5727 14.559 52.788 14.2956C51.9901 14.0508 51.2354 13.691 50.5496 13.2287C50.4983 13.1959 50.4602 13.1472 50.4418 13.0907C50.4235 13.0341 50.426 12.9732 50.4489 12.9183L51.4778 10.9401C51.4921 10.9039 51.5167 10.8723 51.5487 10.8488C51.5808 10.8254 51.6191 10.811 51.6591 10.8075C51.697 10.7989 51.7362 10.7978 51.7745 10.8046C51.8127 10.8114 51.849 10.8256 51.8812 10.8466C52.3328 11.2245 52.843 11.5321 53.3934 11.7584C53.8841 11.9612 54.4123 12.0668 54.9463 12.0688C55.4463 12.1012 55.9414 11.9563 56.3379 11.6616C56.4977 11.5354 56.6246 11.375 56.7083 11.1931C56.7922 11.0113 56.8306 10.8131 56.8206 10.6146C56.8313 10.4002 56.7956 10.1861 56.7157 9.98571C56.6358 9.78536 56.5135 9.60318 56.3565 9.45074C55.903 9.18469 55.3739 9.06266 54.8443 9.1019C54.4409 9.1019 54.2395 9.10191 53.5734 9.12114C52.9073 9.14037 52.4011 9.16026 52.0612 9.19873C51.9889 9.20316 51.9174 9.18245 51.8598 9.14037C51.83 9.11655 51.8056 9.08704 51.7883 9.05371C51.771 9.02037 51.761 8.98395 51.7592 8.94673V2.58524C51.7603 2.51878 51.7884 2.45538 51.8372 2.40838C51.8861 2.36138 51.9521 2.33445 52.0212 2.33326H59.2237C59.2928 2.33445 59.3588 2.36138 59.4077 2.40838C59.4565 2.45538 59.4846 2.51878 59.4858 2.58524V4.79018C59.4846 4.85664 59.4565 4.92005 59.4077 4.96705C59.3588 5.01405 59.2928 5.04098 59.2237 5.04217H54.7457V6.43875H55.4353C56.2901 6.41854 57.1387 6.58425 57.9177 6.9235C58.5984 7.20447 59.1798 7.66932 59.5913 8.26171C59.9972 8.91113 60.2067 9.65658 60.1961 10.4143C60.2148 11.2123 59.9979 11.9992 59.5706 12.6835C59.1564 13.3333 58.5536 13.8524 57.8363 14.1769C57.0203 14.5418 56.1281 14.7218 55.2284 14.7028ZM68.5592 14.7028C67.4204 14.7165 66.2987 14.4352 65.312 13.8884C64.3569 13.3404 63.5713 12.557 63.0365 11.6192C62.4802 10.6381 62.1953 9.53617 62.2089 8.41887C62.1971 7.31186 62.4892 6.22145 63.0557 5.25769C63.6139 4.33306 64.4133 3.5644 65.3747 3.02756C66.2627 2.5438 67.2563 2.26723 68.2756 2.22012C69.295 2.17301 70.3116 2.35667 71.2437 2.75633C72.0644 3.10371 72.805 3.60485 73.4221 4.23049C73.4612 4.27753 73.4826 4.33601 73.4826 4.39627C73.4826 4.45655 73.4612 4.51501 73.4221 4.56206L71.5065 6.07468C71.4816 6.10334 71.451 6.12674 71.4163 6.14341C71.3817 6.16008 71.3438 6.16964 71.3051 6.1715C71.266 6.17176 71.2273 6.16313 71.1923 6.1463C71.1573 6.12948 71.127 6.10494 71.1038 6.07468C70.6299 5.49804 69.9476 5.11403 69.1928 4.99903C68.4379 4.88402 67.6657 5.04644 67.0298 5.45398C66.4732 5.82213 66.031 6.32875 65.7504 6.91972C65.4699 7.51071 65.3615 8.16387 65.4368 8.80946C65.4824 9.4668 65.7372 10.0947 66.1664 10.6081C66.5957 11.1216 67.1787 11.4956 67.8366 11.6795C68.4046 11.8625 69.0158 11.8831 69.5958 11.7385C70.1758 11.5939 70.6996 11.2906 71.1038 10.8652C71.1306 10.8416 71.1627 10.8242 71.1975 10.8141C71.2324 10.804 71.2691 10.8016 71.3051 10.8069C71.3398 10.8032 71.3748 10.8083 71.4067 10.822C71.4385 10.8356 71.4661 10.8572 71.4865 10.8845L73.4428 12.2034C73.4819 12.2505 73.5033 12.309 73.5033 12.3692C73.5033 12.4295 73.4819 12.4879 73.4428 12.535C72.7988 13.1955 72.0328 13.7352 71.1837 14.1265C70.364 14.5005 69.4692 14.6972 68.562 14.7028H68.5592ZM75.317 14.7028V3.08525C75.317 2.6005 75.4177 2.50368 75.579 2.50368H84.4125C84.4456 2.50216 84.4788 2.50701 84.5096 2.51793C84.5409 2.52886 84.5696 2.54564 84.5941 2.5673C84.6186 2.58896 84.638 2.61507 84.6524 2.64411C84.6659 2.67315 84.6735 2.70452 84.6744 2.73644V4.92479C84.6735 4.99125 84.6456 5.05465 84.5966 5.10166C84.5476 5.14866 84.4816 5.1756 84.4125 5.17679H78.4435V7.19405H82.2148C82.2839 7.19524 82.3499 7.22218 82.3988 7.26919C82.4476 7.31619 82.4756 7.37959 82.4769 7.44605V9.61847C82.4756 9.68498 82.4476 9.74835 82.3988 9.79533C82.3499 9.8424 82.2839 9.86927 82.2148 9.87045H78.4435V11.9454H84.3932C84.4623 11.9466 84.5282 11.9736 84.5772 12.0206C84.6262 12.0675 84.6541 12.131 84.6549 12.1974V14.3699C84.6541 14.4363 84.6262 14.4998 84.5772 14.5468C84.5282 14.5937 84.4623 14.6207 84.3932 14.6219H75.5797C75.4184 14.6252 75.317 14.5085 75.317 14.7028ZM86.9533 14.7028C86.884 14.7016 86.8181 14.6746 86.77 14.6276C86.721 14.5807 86.6931 14.5173 86.6914 14.4508V2.83326C86.6931 2.7668 86.721 2.70339 86.77 2.65638C86.8181 2.60939 86.884 2.58245 86.9533 2.58126H89.3337C89.4174 2.58452 89.4976 2.61925 89.5551 2.67808L94.195 9.56482V2.83326C94.1958 2.7668 94.2237 2.70339 94.2727 2.65638C94.3217 2.60939 94.3876 2.58245 94.4569 2.58126H96.9395C97.008 2.58245 97.0739 2.60939 97.1229 2.65638C97.1719 2.70339 97.1998 2.7668 97.2015 2.83326V14.4508C97.1998 14.5173 97.1719 14.5807 97.1229 14.6276C97.0739 14.6746 97.008 14.7016 96.9395 14.7028H94.5575C94.473 14.6995 94.3936 14.6648 94.3353 14.6059L89.7156 7.75972V14.4508C89.7139 14.5173 89.6861 14.5807 89.6371 14.6276C89.588 14.6746 89.5221 14.7016 89.4537 14.7028H86.9533ZM102.684 14.7028C102.651 14.7017 102.618 14.6944 102.588 14.6811C102.558 14.6679 102.531 14.6489 102.508 14.6255C102.486 14.602 102.468 14.5746 102.457 14.5446C102.446 14.5146 102.44 14.4826 102.442 14.4508V5.29947H99.6807C99.6469 5.30098 99.614 5.29614 99.5827 5.28521C99.5514 5.27429 99.5227 5.25751 99.4991 5.23586C99.4745 5.21419 99.4543 5.18808 99.4407 5.15905C99.4272 5.13 99.4196 5.09862 99.4179 5.06671V2.83657C99.4196 2.77011 99.4475 2.7067 99.4965 2.6597C99.5455 2.61271 99.6114 2.58578 99.6807 2.58458H108.333C108.367 2.58357 108.402 2.5894 108.434 2.6017C108.466 2.61401 108.496 2.63254 108.52 2.65615C108.545 2.67975 108.564 2.70793 108.577 2.73896C108.59 2.76999 108.595 2.8032 108.595 2.83657V5.06671C108.595 5.09911 108.589 5.13128 108.575 5.1611C108.563 5.19091 108.542 5.2177 108.518 5.23969C108.493 5.26168 108.464 5.27838 108.432 5.28869C108.399 5.29899 108.366 5.30266 108.333 5.29947H105.567V14.4508C105.566 14.5173 105.538 14.5807 105.489 14.6276C105.44 14.6746 105.374 14.7016 105.305 14.7028H102.684ZM115.188 14.8189C114.208 14.8178 113.236 14.6401 112.324 14.295C111.429 13.9777 110.602 13.5042 109.884 12.8983C109.845 12.8607 109.819 12.8132 109.809 12.7615C109.798 12.7098 109.803 12.6562 109.823 12.6072L110.53 10.2995C110.544 10.2633 110.569 10.2317 110.601 10.2082C110.633 10.1848 110.671 10.1704 110.711 10.1669C110.75 10.1567 110.791 10.1568 110.83 10.1671C110.869 10.1774 110.905 10.1975 110.933 10.2253C112.002 11.1947 113.208 12.0675 114.725 12.1484C115.137 12.1909 115.553 12.1646 115.955 12.0707C117.146 11.7021 116.641 10.5389 115.754 10.1894C115.452 10.0732 115.028 9.93746 114.483 9.78232C113.806 9.61154 113.144 9.38441 112.507 9.10323C111.952 8.85653 111.468 8.48376 111.096 8.01701C110.688 7.44107 110.482 6.75443 110.511 6.0581C110.494 5.35439 110.705 4.66318 111.115 4.07996C111.534 3.50222 112.114 3.05129 112.789 2.78021C113.569 2.47271 114.407 2.32087 115.25 2.33392C116.078 2.3315 116.902 2.45596 117.69 2.70262C118.438 2.92438 119.15 3.24413 119.808 3.65289C119.858 3.68652 119.894 3.73648 119.908 3.79353C119.924 3.85059 119.916 3.91087 119.888 3.96324L119.221 6.13039C119.21 6.16511 119.189 6.19611 119.161 6.21965C119.132 6.24318 119.097 6.25824 119.059 6.26301C119.026 6.27419 118.992 6.27826 118.957 6.27494C118.921 6.27162 118.888 6.26098 118.858 6.24378C118.005 5.60717 117.023 5.15114 115.974 4.90557C115.268 4.80875 114.2 4.84721 113.957 5.6622C113.654 6.7093 115.248 6.98119 115.974 7.19405C116.657 7.38241 117.325 7.61573 117.974 7.89234C118.53 8.15564 119.014 8.54196 119.385 9.01968C119.812 9.60259 120.024 10.3052 119.99 11.017C120.006 11.7505 119.78 12.4699 119.345 13.0727C118.917 13.6619 118.322 14.1199 117.63 14.3918C116.852 14.6799 116.024 14.8249 115.19 14.8189H115.188Z" fill="white"/>
<path d="M62.3643 41.7309C60.2253 41.7568 58.1185 41.2284 56.2651 40.201C54.4685 39.1725 52.9905 37.7008 51.9842 35.9384C50.9397 34.0956 50.4047 32.0257 50.4306 29.927C50.4084 27.8475 50.9572 25.7991 52.0214 23.9886C53.0701 22.2515 54.5718 20.8074 56.3781 19.7989C58.0461 18.8902 59.9124 18.3707 61.8271 18.2822C63.7419 18.1936 65.6515 18.5384 67.4023 19.289C68.9439 19.9414 70.335 20.8826 71.4942 22.0576C71.5678 22.1453 71.608 22.2546 71.608 22.3672C71.608 22.4799 71.5678 22.5892 71.4942 22.6769L67.8954 25.5185C67.8489 25.5725 67.7912 25.6165 67.726 25.6479C67.6609 25.6793 67.5896 25.6974 67.5168 25.7008C67.4432 25.7013 67.3706 25.6851 67.3047 25.6534C67.239 25.6217 67.1819 25.5755 67.1383 25.5185C66.248 24.435 64.9663 23.7135 63.5479 23.4975C62.1297 23.2814 60.6788 23.5868 59.484 24.3527C57.2084 25.7008 56.3774 28.1784 56.4913 30.6525C56.577 31.8874 57.0556 33.067 57.8621 34.0316C58.6686 34.9961 59.7639 35.6988 60.9997 36.0445C62.0668 36.3883 63.2148 36.4268 64.3043 36.1553C65.3938 35.8837 66.3778 35.3137 67.1368 34.5146C67.1874 34.4703 67.2478 34.4375 67.3133 34.4186C67.3787 34.3997 67.4479 34.3951 67.5155 34.4053C67.5805 34.3983 67.6464 34.4082 67.7063 34.4338C67.7662 34.4594 67.8179 34.5 67.8561 34.5511L71.5308 37.0286C71.6043 37.1164 71.6445 37.2256 71.6445 37.3383C71.6445 37.451 71.6043 37.5602 71.5308 37.6479C70.3212 38.888 68.8825 39.9011 67.2879 40.6354C65.749 41.3414 64.068 41.7144 62.3629 41.7283L62.3643 41.7309ZM75.9269 41.7309C75.8616 41.7329 75.7967 41.7219 75.7361 41.6988C75.6755 41.6757 75.6204 41.6409 75.5742 41.5966C75.5281 41.5522 75.4919 41.4992 75.4678 41.4409C75.4439 41.3826 75.4325 41.3202 75.4345 41.2575V19.4329C75.4324 19.3702 75.4437 19.3076 75.4677 19.2493C75.4917 19.191 75.5278 19.138 75.574 19.0935C75.6202 19.0492 75.6753 19.0143 75.736 18.9913C75.7966 18.9682 75.8616 18.9574 75.9269 18.9594H84.5273C86.6821 18.9227 88.8107 19.4254 90.7026 20.4183C92.4923 21.345 93.966 22.7498 94.9454 24.4634C95.9644 26.2616 96.4866 28.2811 96.4621 30.3289C96.4976 32.3939 95.9619 34.4309 94.909 36.2309C93.9111 37.9563 92.4095 39.3627 90.5902 40.276C88.6721 41.2734 86.519 41.776 84.339 41.7349L75.9269 41.7309ZM81.3055 36.6301H84.6397C85.6918 36.6453 86.7269 36.3805 87.6327 35.8648C88.5225 35.3181 89.2424 34.5503 89.7165 33.6426C90.2328 32.6218 90.493 31.4985 90.4745 30.3634C90.4947 29.2241 90.221 28.0979 89.6793 27.0849C89.1884 26.1553 88.4414 25.3737 87.5195 24.8262C86.5765 24.2983 85.5042 24.0216 84.4128 24.0244H81.3069L81.3055 36.6301ZM100.74 41.7309C100.61 41.7287 100.487 41.6781 100.395 41.5898C100.303 41.5015 100.25 41.3823 100.248 41.2575V19.4329C100.25 19.308 100.303 19.1888 100.395 19.1005C100.487 19.0122 100.61 18.9616 100.74 18.9594H105.209C105.366 18.9664 105.515 19.0318 105.623 19.1418L114.336 32.073V19.4329C114.338 19.308 114.391 19.1888 114.483 19.1005C114.575 19.0122 114.699 18.9616 114.828 18.9594H119.488C119.619 18.9616 119.743 19.0122 119.834 19.1005C119.926 19.1888 119.978 19.308 119.981 19.4329V41.2561C119.978 41.381 119.926 41.5001 119.834 41.5884C119.743 41.6768 119.619 41.7274 119.488 41.7296H115.018C114.861 41.7226 114.712 41.6572 114.604 41.5472L105.932 28.687V41.2561C105.93 41.381 105.877 41.5001 105.786 41.5884C105.694 41.6768 105.57 41.7274 105.44 41.7296H100.742L100.74 41.7309Z" fill="white"/>
</g>
<defs>
<clipPath id="clip0_2885_24471">
<rect width="119.99" height="42.25" fill="white" transform="translate(0.00390625 0.875)"/>
</clipPath>
</defs>
</svg>
